<?xml version="1.0" standalone="no"?>
<!DOCTYPE svg PUBLIC "-//W3C//DTD SVG 20010904//EN"
 "http://www.w3.org/TR/2001/REC-SVG-20010904/DTD/svg10.dtd">
<svg version="1.0" xmlns="http://www.w3.org/2000/svg"
 width="1152.000000pt" height="1152.000000pt" viewBox="0 0 1152.000000 1152.000000"
 preserveAspectRatio="xMidYMid meet">
<metadata>
Created by potrace 1.14, written by Peter Selinger 2001-2017
</metadata>
<g transform="translate(0.000000,1152.000000) scale(0.100000,-0.100000)"
fill="#000000" stroke="none">
<path d="M5683 11501 c-50 -23 -100 -73 -233 -231 -30 -36 -61 -73 -70 -82 -8
-9 -20 -23 -25 -30 -6 -7 -47 -59 -93 -116 -45 -56 -82 -105 -82 -108 0 -2 -9
-15 -21 -27 -46 -50 -276 -380 -391 -562 -116 -184 -268 -447 -268 -464 0 -5
-3 -11 -7 -13 -11 -4 -283 -555 -283 -572 0 -2 -10 -25 -22 -52 -12 -27 -22
-52 -23 -56 0 -3 -3 -10 -7 -14 -5 -4 -8 -16 -8 -26 0 -10 -4 -18 -10 -18 -5
0 -10 -8 -10 -18 0 -10 -3 -22 -7 -26 -5 -4 -8 -11 -9 -14 0 -4 -5 -18 -11
-32 -97 -236 -264 -750 -308 -945 -6 -25 -11 -45 -30 -120 -19 -77 -24 -100
-45 -200 -6 -27 -13 -61 -16 -75 -7 -33 -13 -65 -18 -92 -2 -13 -7 -34 -10
-48 -5 -24 -14 -78 -21 -127 -2 -12 -6 -34 -9 -50 -3 -15 -8 -48 -11 -73 -3
-25 -8 -56 -10 -70 -10 -55 -14 -88 -20 -152 -3 -37 -7 -75 -9 -85 -2 -10 -7
-47 -10 -83 -4 -36 -9 -85 -12 -110 -8 -73 -23 -374 -27 -548 -3 -107 -3 -106
-52 -134 -38 -21 -171 -123 -260 -197 -185 -156 -375 -368 -510 -571 -39 -58
-73 -106 -77 -108 -5 -2 -8 -12 -8 -23 0 -10 -4 -19 -10 -19 -5 0 -10 -7 -10
-15 0 -8 -5 -15 -11 -15 -5 0 -8 -4 -5 -9 4 -5 3 -11 -2 -13 -17 -7 -188 -378
-175 -378 3 0 1 -6 -4 -12 -9 -12 -57 -148 -68 -194 -3 -10 -14 -55 -25 -99
-11 -44 -23 -93 -25 -110 -3 -16 -8 -37 -10 -45 -4 -15 -8 -35 -19 -115 -37
-252 -37 -597 0 -800 2 -10 6 -37 10 -60 3 -22 11 -66 19 -97 7 -31 10 -59 7
-62 -3 -3 0 -6 7 -6 7 0 10 -4 7 -9 -3 -5 1 -33 10 -62 36 -122 97 -305 104
-314 4 -5 10 -22 14 -37 9 -39 33 -35 27 5 0 4 3 7 7 7 5 0 19 24 32 53 67
148 234 405 375 576 86 103 267 288 354 361 30 25 66 55 80 67 33 28 31 27
121 94 84 62 188 131 267 178 l52 30 10 -37 c9 -34 36 -136 46 -172 2 -8 13
-46 25 -85 12 -38 23 -74 24 -80 2 -5 5 -17 8 -25 19 -53 103 -284 118 -325
20 -55 63 -105 113 -132 30 -17 123 -18 1652 -21 1084 -2 1632 0 1655 7 59 17
100 73 151 206 13 33 24 65 26 70 1 6 13 42 27 80 22 63 46 143 50 170 1 6 5
16 9 23 5 6 6 12 3 12 -2 0 0 15 5 33 12 39 16 54 23 98 13 80 24 130 30 136
4 4 21 -1 39 -11 38 -22 284 -184 306 -202 9 -7 43 -34 76 -61 101 -81 125
-103 265 -243 124 -125 183 -191 250 -280 14 -18 31 -39 38 -46 6 -7 12 -16
12 -21 1 -4 14 -24 30 -43 17 -19 30 -40 30 -47 0 -7 4 -13 8 -13 5 0 15 -12
23 -28 8 -15 16 -29 19 -32 15 -14 115 -192 152 -270 24 -49 46 -89 50 -90 3
0 19 33 34 73 15 39 31 77 35 82 10 14 85 266 104 350 18 78 40 206 52 305 10
79 10 524 0 600 -4 30 -11 82 -17 115 -6 33 -13 77 -16 98 -3 21 -19 89 -35
150 -31 118 -33 123 -41 147 -3 8 -16 44 -28 80 -12 36 -28 79 -35 95 -8 17
-23 54 -34 82 -11 29 -34 80 -51 113 -17 33 -31 63 -32 67 -3 13 -159 267
-174 284 -8 8 -14 21 -14 27 0 7 -3 12 -7 12 -5 0 -24 23 -43 50 -19 27 -38
50 -42 50 -5 0 -8 5 -8 10 0 6 -12 24 -27 42 -195 221 -338 352 -543 497 -63
44 -123 86 -132 93 -14 11 -17 44 -22 253 -6 268 -14 408 -32 570 -2 22 -6 63
-9 90 -3 28 -7 68 -9 90 -3 22 -8 65 -11 95 -3 30 -8 64 -10 75 -7 34 -17 98
-20 135 -2 19 -4 35 -5 35 -2 0 -9 35 -15 75 -2 19 -7 46 -10 60 -6 25 -16 83
-19 110 -1 9 -5 21 -10 28 -4 6 -5 12 -2 12 2 0 -3 28 -11 63 -8 34 -21 91
-29 127 -8 36 -17 73 -20 83 -2 9 -6 25 -8 35 -2 9 -9 37 -15 62 -7 25 -13 52
-15 60 -2 8 -10 35 -17 60 -7 25 -13 47 -14 50 -1 3 -7 25 -14 50 -7 25 -30
103 -53 174 -22 70 -41 136 -43 146 -2 10 -8 26 -13 36 -6 11 -17 39 -25 64
-27 77 -88 243 -102 275 -7 17 -25 62 -40 100 -15 39 -36 90 -47 115 -11 25
-26 59 -33 75 -50 116 -202 426 -264 540 -15 28 -45 82 -65 120 -21 39 -47 82
-57 97 -11 14 -19 30 -19 36 0 5 -13 27 -29 49 -16 22 -32 49 -35 61 -4 12
-12 22 -17 22 -5 0 -9 5 -9 10 0 6 -8 23 -19 38 -10 15 -58 88 -106 162 -48
74 -91 137 -95 140 -3 3 -9 12 -12 20 -5 14 -314 429 -327 440 -3 3 -24 28
-46 55 -21 28 -42 52 -45 55 -3 3 -30 34 -60 70 -118 140 -212 238 -248 258
-42 23 -132 25 -179 3z m113 -957 c10 -15 29 -38 40 -53 38 -47 249 -345 274
-386 13 -22 27 -42 30 -45 13 -11 210 -338 210 -349 0 -5 3 -11 8 -13 7 -3 13
-14 90 -158 69 -130 163 -323 233 -475 35 -78 109 -262 109 -272 0 -7 5 -13
12 -13 6 0 9 -3 6 -6 -3 -3 8 -40 24 -82 48 -123 158 -455 158 -478 0 -11 4
-24 9 -30 8 -8 102 -367 115 -434 2 -14 11 -56 19 -95 23 -106 37 -177 42
-210 5 -37 14 -91 20 -127 3 -16 7 -43 10 -60 2 -18 7 -51 11 -73 4 -22 8 -53
9 -70 2 -27 8 -84 20 -185 19 -155 38 -503 36 -647 -1 -81 -1 -94 2 -148 1
-27 -1 -58 -6 -67 -4 -10 -4 -18 0 -18 9 0 9 -211 0 -235 -4 -8 -3 -15 2 -15
4 0 7 -10 7 -21 -1 -15 14 -33 47 -56 26 -18 47 -30 47 -27 0 4 8 0 18 -8 9
-8 64 -43 122 -78 134 -81 254 -161 258 -172 2 -4 8 -8 14 -8 5 0 15 -6 23
-12 7 -7 37 -33 66 -58 112 -95 239 -231 322 -344 20 -28 41 -55 45 -61 46
-59 147 -245 191 -350 18 -44 36 -87 41 -95 4 -9 11 -30 15 -48 l7 -33 -89 64
c-83 59 -191 127 -293 185 -25 13 -74 42 -110 62 -36 20 -85 48 -110 62 -47
26 -58 32 -235 133 -60 34 -137 77 -170 95 -33 18 -73 40 -90 50 -16 10 -50
29 -75 42 -25 14 -62 35 -82 46 -26 15 -38 18 -40 9 0 -6 -2 -23 -4 -37 -1
-14 -5 -38 -8 -55 -13 -68 -19 -101 -21 -115 -8 -63 -17 -118 -26 -163 -5 -29
-12 -72 -15 -97 -3 -25 -7 -52 -9 -60 -4 -14 -13 -70 -21 -130 -4 -30 -11 -74
-18 -115 -3 -16 -8 -48 -11 -70 -3 -22 -10 -65 -15 -95 -5 -30 -12 -71 -15
-90 -3 -19 -15 -77 -26 -128 l-21 -92 -1233 0 -1234 0 -19 63 c-11 34 -33 118
-50 187 -17 69 -34 139 -38 155 -10 43 -11 47 -17 80 -4 17 -11 48 -17 70 -6
22 -13 54 -15 70 -3 17 -16 80 -30 140 -14 61 -35 153 -46 205 -11 52 -22 104
-25 115 -17 80 -26 119 -28 132 -1 7 -5 15 -8 19 -4 3 -91 -41 -195 -99 -103
-58 -206 -115 -228 -127 -22 -12 -58 -32 -80 -44 -83 -47 -161 -90 -190 -104
-16 -9 -32 -18 -35 -21 -3 -4 -16 -12 -30 -18 -39 -19 -99 -54 -182 -106 -41
-26 -81 -47 -87 -47 -6 0 -11 -4 -11 -8 0 -4 -15 -16 -32 -27 -18 -10 -37 -23
-43 -27 -26 -22 -79 -57 -82 -55 -6 7 50 146 99 247 44 91 151 275 167 290 4
3 26 32 51 65 24 33 57 74 73 90 15 17 35 42 45 58 9 15 19 27 22 27 3 0 42
35 86 78 89 86 127 119 164 143 14 10 35 26 47 38 12 12 26 21 31 21 5 0 25
13 43 30 19 16 40 30 47 30 6 0 12 5 12 10 0 6 5 10 10 10 6 0 32 15 58 33 53
36 65 43 137 87 106 63 95 19 100 405 2 187 6 372 9 410 10 161 16 241 21 265
2 14 7 57 10 95 3 39 7 77 10 85 2 8 7 42 10 75 11 99 12 106 29 210 9 55 19
116 22 135 3 19 8 38 9 41 2 3 7 28 11 55 3 27 8 52 11 56 4 8 8 25 17 79 3
19 22 99 41 179 20 80 38 152 40 160 6 32 37 136 45 155 8 20 30 98 32 112 1
14 109 328 124 360 8 17 14 35 14 40 0 4 6 20 14 34 10 21 22 53 31 89 0 3 10
26 22 52 12 25 24 57 28 70 4 12 14 32 21 43 8 11 14 27 14 37 0 10 5 18 10
18 6 0 9 4 8 8 -4 11 24 82 32 82 4 0 7 6 7 13 0 13 159 337 226 462 63 115
81 147 159 275 94 155 89 148 126 202 17 26 32 50 32 53 0 3 12 23 28 44 15
21 33 47 39 57 7 11 43 61 80 113 38 51 73 100 78 109 6 9 15 22 20 28 6 7 18
23 28 36 45 61 69 88 76 88 5 0 17 -12 27 -26z"/>
<path d="M5728 8105 c-2 -2 -30 -5 -63 -9 -197 -19 -375 -102 -520 -243 -91
-89 -128 -141 -184 -258 -84 -175 -105 -351 -66 -555 15 -79 85 -238 138 -313
26 -37 102 -121 136 -151 13 -12 29 -27 37 -33 7 -7 17 -13 23 -13 6 0 11 -4
11 -8 0 -24 202 -119 319 -149 89 -23 302 -22 411 3 14 3 30 6 35 7 6 2 16 6
23 10 6 5 12 6 12 3 0 -8 94 29 155 61 112 58 277 202 308 271 6 12 13 22 17
22 14 0 98 197 116 270 29 122 24 341 -10 438 -8 23 -13 42 -11 42 10 0 -58
137 -101 203 -93 144 -254 275 -413 336 -80 31 -99 36 -189 52 -54 10 -178 19
-184 14z"/>
<path d="M4391 2674 c-148 -40 -272 -170 -306 -319 -13 -55 -13 -1450 0 -1517
14 -76 82 -184 149 -235 53 -40 134 -82 176 -89 98 -18 250 -8 266 17 3 5 12
9 20 9 23 0 95 50 144 101 66 67 104 143 117 234 6 47 10 1445 4 1451 -3 3 -6
12 -7 22 -10 72 -79 190 -136 234 -17 12 -36 28 -42 33 -11 10 -81 46 -101 52
-87 24 -210 28 -284 7z"/>
<path d="M5620 2676 c-58 -15 -130 -47 -130 -58 0 -4 -6 -8 -13 -8 -22 0 -112
-101 -140 -155 -48 -97 -48 -96 -45 -1130 2 -533 7 -983 11 -999 25 -91 94
-188 179 -251 85 -62 255 -92 360 -65 116 31 225 114 281 214 59 105 57 72 54
1146 -2 947 -3 987 -21 1030 -11 25 -26 52 -33 61 -7 8 -13 20 -13 26 0 6 -28
37 -62 69 -61 56 -133 97 -193 109 -107 22 -181 25 -235 11z"/>
<path d="M6870 2671 c-83 -26 -119 -48 -181 -111 -79 -79 -119 -164 -124 -266
-1 -23 -5 -46 -8 -51 -4 -6 -4 -13 0 -17 9 -9 9 -146 0 -146 -5 0 -5 -5 -1
-12 10 -16 11 -139 1 -145 -4 -2 -4 -9 0 -16 9 -15 10 -147 0 -147 -5 0 -5 -5
-1 -12 10 -16 11 -139 1 -145 -4 -2 -4 -9 0 -16 10 -16 9 -147 -1 -147 -5 0
-4 -6 1 -12 10 -15 10 -238 0 -255 -4 -5 -4 -13 0 -17 9 -8 8 -70 -1 -84 -4
-7 -4 -12 1 -12 4 0 8 -37 7 -82 -1 -98 17 -184 52 -247 27 -50 97 -128 135
-150 158 -95 306 -105 457 -30 106 52 181 139 221 256 19 56 20 85 20 794 1
696 0 740 -18 791 -34 98 -87 166 -178 229 -23 16 -48 29 -57 29 -8 0 -17 4
-20 8 -9 15 -108 31 -181 30 -38 0 -95 -8 -125 -17z"/>
</g>
</svg>
